<?xml version="1.0" encoding="UTF-8" standalone="no"?>
<!-- Created with Inkscape (http://www.inkscape.org/) -->

<svg
   width="171.57219mm"
   height="174.44mm"
   viewBox="0 0 171.57219 174.44"
   version="1.1"
   id="svg5"
   inkscape:version="1.1.2 (0a00cf5339, 2022-02-04)"
   sodipodi:docname="logo.svg"
   xmlns:inkscape="http://www.inkscape.org/namespaces/inkscape"
   xmlns:sodipodi="http://sodipodi.sourceforge.net/DTD/sodipodi-0.dtd"
   xmlns="http://www.w3.org/2000/svg"
   xmlns:svg="http://www.w3.org/2000/svg">
  <sodipodi:namedview
     id="namedview7"
     pagecolor="#ffffff"
     bordercolor="#666666"
     borderopacity="1.0"
     inkscape:pageshadow="2"
     inkscape:pageopacity="0.0"
     inkscape:pagecheckerboard="0"
     inkscape:document-units="mm"
     showgrid="true"
     inkscape:snap-global="true"
     inkscape:zoom="0.75187991"
     inkscape:cx="13.964996"
     inkscape:cy="376.38989"
     inkscape:window-width="1920"
     inkscape:window-height="1043"
     inkscape:window-x="0"
     inkscape:window-y="0"
     inkscape:window-maximized="1"
     inkscape:current-layer="g18045"
     fit-margin-top="0"
     fit-margin-left="0"
     fit-margin-right="0"
     fit-margin-bottom="0">
    <inkscape:grid
       type="xygrid"
       id="grid174"
       originx="-26.780841"
       originy="-13.329684" />
  </sodipodi:namedview>
  <defs
     id="defs2" />
  <g
     inkscape:groupmode="layer"
     id="layer6"
     inkscape:label="Layer 6"
     style="display:inline"
     transform="translate(-26.780836,-13.329687)">
    <g
       id="g18045"
       transform="matrix(0.42883793,0,0,0.42883793,26.739668,13.329687)"
       style="display:inline">
      <path
         style="fill:#ffffff"
         d="M 259.976,298.537 V 73.826 c 0,-6.012 -4.848,-10.925 -10.925,-10.925 H 32.873 c -6.012,0 -10.925,4.848 -10.925,10.925 v 285.996 c 0,6.012 4.848,10.925 10.925,10.925 h 154.828"
         id="path18010" />
      <path
         style="fill:#ffc10d"
         d="M 227.2,84.752 H 54.659 c -6.012,0 -10.925,4.848 -10.925,10.925 v 242.424 c 0,6.012 4.848,10.925 10.925,10.925 h 119.467 c 2.651,0 5.172,-1.034 7.176,-2.78 v -43.119 c 0,-6.012 4.848,-10.925 10.925,-10.925 h 43.119 c 1.745,-2.004 2.78,-4.461 2.78,-7.176 V 95.677 C 238.061,89.6 233.212,84.752 227.2,84.752 Z"
         id="path18012" />
      <polygon
         style="fill:#ffffff"
         points="203.152,355.362 244.525,313.988 203.152,313.988 "
         id="polygon18014" />
      <g
         id="g18028">
	<path
   style="fill:#334a5e;fill-opacity:1"
   d="m 302.513,41.18 c -6.012,0 -10.925,4.848 -10.925,10.925 0,6.077 4.848,10.925 10.925,10.925 6.012,0 10.925,4.848 10.925,10.925 v 285.996 c 0,6.012 -4.848,10.925 -10.925,10.925 h -52.945 c -6.012,0 -10.925,4.848 -10.925,10.925 0,6.012 4.848,10.925 10.925,10.925 h 52.945 c 18.036,0 32.711,-14.675 32.711,-32.711 V 73.826 C 335.289,55.855 320.614,41.18 302.513,41.18 Z"
   id="path18016" />

	<path
   style="fill:#334a5e;fill-opacity:1"
   d="m 359.919,41.18 c -6.012,0 -10.925,4.848 -10.925,10.925 0,6.077 4.848,10.925 10.925,10.925 6.012,0 10.925,4.848 10.925,10.925 v 285.996 c 0,6.012 -4.848,10.925 -10.925,10.925 -6.012,0 -10.925,4.848 -10.925,10.925 0,6.012 4.848,10.925 10.925,10.925 18.036,0 32.711,-14.675 32.711,-32.711 V 73.826 c 0,-17.971 -14.674,-32.646 -32.711,-32.646 z"
   id="path18018" />

	<path
   style="fill:#334a5e;fill-opacity:1"
   d="M 281.697,303.127 V 73.826 c 0,-18.036 -14.675,-32.711 -32.711,-32.711 H 124.8 V 40.986 C 124.8,18.424 106.44,0 83.814,0 61.188,0 42.828,18.36 42.828,40.986 v 0.129 H 32.872 C 14.771,41.115 0.096,55.79 0.096,73.826 v 285.996 c 0,18.101 14.675,32.776 32.711,32.776 h 159.354 c 2.844,0 5.624,-1.164 7.758,-3.168 l 78.61,-78.61 c 2.004,-2.068 3.168,-4.848 3.168,-7.693 z M 64.614,40.986 c 0,-10.602 8.598,-19.135 19.135,-19.135 10.537,0 19.135,8.598 19.135,19.135 v 0.129 H 64.55 v -0.129 z m 138.473,314.376 v -41.374 h 41.309 z m 56.824,-63.16 h -67.749 c -6.012,0 -10.925,4.848 -10.925,10.925 v 67.685 H 32.808 c -6.012,0 -10.925,-4.848 -10.925,-10.925 V 73.826 c 0,-6.012 4.848,-10.925 10.925,-10.925 h 70.141 v 50.683 c 0,4.848 -4.008,8.857 -8.857,8.857 -4.849,0 -8.857,-4.008 -8.857,-8.857 V 93.673 c 0,-6.012 -4.848,-10.925 -10.925,-10.925 -6.077,0 -10.925,4.848 -10.925,10.925 v 19.911 c 0,16.937 13.77,30.707 30.707,30.707 16.937,0 30.707,-13.77 30.707,-30.707 V 62.901 h 124.186 c 6.012,0 10.925,4.848 10.925,10.925 z"
   id="path18020" />

	<path
   style="fill:#334a5e;fill-opacity:1"
   d="M 212.137,173.059 H 69.786 c -6.012,0 -10.925,4.848 -10.925,10.925 0,6.077 4.848,10.925 10.925,10.925 h 142.352 c 6.012,0 10.925,-4.848 10.925,-10.925 0,-6.077 -4.913,-10.925 -10.926,-10.925 z"
   id="path18022" />

	<path
   style="fill:#334a5e;fill-opacity:1"
   d="M 212.137,231.434 H 69.786 c -6.012,0 -10.925,4.848 -10.925,10.925 0,6.077 4.848,10.925 10.925,10.925 h 142.352 c 6.012,0 10.925,-4.848 10.925,-10.925 0,-6.077 -4.913,-10.925 -10.926,-10.925 z"
   id="path18024" />

	<path
   style="fill:#334a5e;fill-opacity:1"
   d="M 135.079,289.745 H 69.786 c -6.012,0 -10.925,4.848 -10.925,10.925 0,6.077 4.848,10.925 10.925,10.925 h 65.293 c 6.012,0 10.925,-4.849 10.925,-10.925 0,-6.076 -4.913,-10.925 -10.925,-10.925 z"
   id="path18026" />

<path
   style="fill:#334a5e;fill-opacity:1"
   d="M 212.137,173.059 H 69.786 c -6.012,0 -10.925,4.848 -10.925,10.925 0,6.077 4.848,10.925 10.925,10.925 h 142.352 c 6.012,0 10.925,-4.848 10.925,-10.925 0,-6.077 -4.913,-10.925 -10.926,-10.925 z"
   id="path46048" />
</g>
    </g>
    <g
       id="g18286"
       transform="matrix(0.26425414,0,0,0.26425414,65.729484,55.128974)">
      <polygon
         style="fill:#334a5e"
         points="343.838,377.339 309.357,342.858 342.793,309.421 377.275,343.903 "
         id="polygon18251" />
      <path
         style="fill:#ffd15c"
         d="m 486.989,487.054 v 0 c -19.853,19.853 -52.245,19.853 -72.098,0 l -98.22,-98.22 72.098,-72.098 98.22,98.22 c 19.853,19.853 19.853,52.245 0,72.098 z"
         id="path18253" />
      <path
         style="fill:#40596b"
         d="m 337.569,57.601 c -77.322,-76.278 -201.665,-77.322 -278.988,0 -77.323,77.322 -78.367,200.62 -1.045,277.943 76.278,77.322 201.665,77.322 278.988,1.045 77.323,-76.277 77.323,-201.666 1.045,-278.988 z"
         id="path18255" />
      <path
         style="fill:#f2f2f2"
         d="M 306.222,306.286 C 245.618,365.845 147.398,365.845 87.838,305.241 27.234,245.682 28.279,147.461 88.883,87.902 c 60.604,-59.559 158.824,-59.559 218.384,1.045 59.559,59.56 59.559,157.78 -1.045,217.339 z"
         id="path18257" />
      <path
         style="fill:#84dbff"
         d="m 275.92,275.984 c -43.886,42.841 -114.939,42.841 -157.78,0 -43.886,-43.886 -42.841,-113.894 0,-157.78 43.886,-42.841 114.939,-42.841 157.78,0 43.886,43.886 43.886,113.895 0,157.78 z"
         id="path18259" />
      <path
         style="fill:#54c0eb"
         d="m 251.887,251.952 c -30.302,30.302 -79.412,30.302 -109.714,0 -30.302,-30.302 -30.302,-79.412 0,-109.714 30.302,-30.302 79.412,-30.302 109.714,0 30.302,30.301 30.302,79.412 0,109.714 z"
         id="path18261" />
      <g
         id="g18267">
	<circle
   style="fill:#ffffff"
   cx="135.138"
   cy="159.88699"
   id="ellipse18263"
   r="16.718" />

	<circle
   style="fill:#ffffff"
   cx="159.992"
   cy="175.957"
   id="ellipse18265"
   r="8.3590002" />

</g>
      <polygon
         style="fill:#f8b64c"
         points="315.626,387.788 345.928,418.09 418.026,345.992 388.769,316.735 "
         id="polygon18269" />
    </g>
  </g>
</svg>
